<svg xmlns="http://www.w3.org/2000/svg" viewBox="0 0 512 512">
<defs><linearGradient id="g" x1="0" y1="0" x2="1" y2="1"><stop stop-color="#7B4DFF"/><stop offset="1" stop-color="#40A9FF"/></linearGradient></defs>
<rect width="512" height="512" rx="112" fill="#070912"/>
<circle cx="256" cy="256" r="205" fill="#111832" stroke="url(#g)" stroke-width="18"/>
<path fill="#7B4DFF" d="M145 132h126c58 0 92 29 92 73 0 31-18 53-50 63 39 9 59 35 59 74 0 49-35 76-102 76H145V132zm58 49v66h58c27 0 42-11 42-34 0-22-15-32-42-32h-58zm0 111v77h61c30 0 47-13 47-39 0-25-17-38-47-38h-61z"/>
<path fill="#40A9FF" d="M295 132h64l-27 91h54L283 386l22-106h-55z"/>
</svg>